<svg xmlns="http://www.w3.org/2000/svg" width="120" height="50" viewBox="0 0 120 50">
  <g id="Group_39426" data-name="Group 39426" transform="translate(-435.346 303.334)">
    <path id="Path_89329" data-name="Path 89329" d="M606.816-293.631a9.669,9.669,0,0,0-4.338-1.024,9.665,9.665,0,0,0-4.414,1.064v-8.458a1.272,1.272,0,0,0-1.249-1.286h-2.926a1.272,1.272,0,0,0-1.249,1.286v26.242a1.272,1.272,0,0,0,1.249,1.286h2.926a1.253,1.253,0,0,0,1.148-.782,1.307,1.307,0,0,0,.1-.5v-8c0-.007,0-.014,0-.021v-1.181c0-.007,0-.014,0-.021a4.5,4.5,0,0,1,4.414-3.975,4.486,4.486,0,0,1,4.338,3.546,4.731,4.731,0,0,1,.116,1.041,4.693,4.693,0,0,1-.067.788,4.693,4.693,0,0,0,.066-.786,4.721,4.721,0,0,0-.117-1.041v2.081h0v7.572a1.3,1.3,0,0,0,.116.536,1.251,1.251,0,0,0,1.133.75h2.926a1.272,1.272,0,0,0,1.249-1.286v-10.545A10.212,10.212,0,0,0,606.816-293.631Z" transform="translate(-129.995)" fill="#2c3b46"/>
    <path id="Path_89330" data-name="Path 89330" d="M457.541-282.835a1.245,1.245,0,0,0-1.461-.229,8.864,8.864,0,0,1-1.218,1.149,8.652,8.652,0,0,1-5.334,1.836,8.825,8.825,0,0,1-8.766-8.883,8.825,8.825,0,0,1,8.766-8.883,8.661,8.661,0,0,1,5.69,2.128,8.89,8.89,0,0,1,.751.731,1.245,1.245,0,0,0,1.551-.159l2.1-2.078a1.285,1.285,0,0,0,.021-1.8l-.408-.424a14.17,14.17,0,0,0-4.4-2.854,13.978,13.978,0,0,0-5.3-1.038,14.277,14.277,0,0,0-14.182,14.371,14.277,14.277,0,0,0,14.182,14.371,13.977,13.977,0,0,0,5.329-1.05,14.141,14.141,0,0,0,3.8-2.326l.957-.97a1.285,1.285,0,0,0,0-1.8Z" fill="#2c3b46"/>
    <ellipse id="Ellipse_6026" data-name="Ellipse 6026" cx="2.686" cy="2.722" rx="2.686" ry="2.722" transform="translate(549.974 -301.364)" fill="#2c3b46"/>
    <rect id="Rectangle_24142" data-name="Rectangle 24142" width="5.372" height="19.006" rx="2.686" transform="translate(549.974 -293.633)" fill="#2c3b46"/>
    <g id="Group_39425" data-name="Group 39425" transform="translate(484.907 -294.607)">
      <path id="Path_89331" data-name="Path 89331" d="M730.76-252.726a9.912,9.912,0,0,0-9.846,9.977,9.912,9.912,0,0,0,9.846,9.977,9.912,9.912,0,0,0,9.846-9.977A9.912,9.912,0,0,0,730.76-252.726Zm0,14.448a4.442,4.442,0,0,1-4.412-4.471,4.442,4.442,0,0,1,4.412-4.471,4.442,4.442,0,0,1,4.412,4.471A4.442,4.442,0,0,1,730.76-238.278Z" transform="translate(-720.915 252.899)" fill="#ea341a"/>
      <path id="Path_89332" data-name="Path 89332" d="M971.429-252.813a9.912,9.912,0,0,0-9.846,9.977,9.912,9.912,0,0,0,9.846,9.977,9.912,9.912,0,0,0,9.846-9.977A9.912,9.912,0,0,0,971.429-252.813Zm0,14.448a4.442,4.442,0,0,1-4.412-4.471,4.442,4.442,0,0,1,4.412-4.471,4.442,4.442,0,0,1,4.412,4.471A4.442,4.442,0,0,1,971.429-238.365Z" transform="translate(-919.815 252.971)" fill="#ea341a"/>
      <path id="Path_89333" data-name="Path 89333" d="M810.532-111.186h-4.339a1.223,1.223,0,0,0-.855.351q-.155.258-.319.51a19.589,19.589,0,0,1-16.479,9.048,19.6,19.6,0,0,1-16.587-9.215c-.036-.058-.072-.116-.107-.174a1.231,1.231,0,0,0-.993-.511h-4.339a1.249,1.249,0,0,0-1.237,1.254v.225a26.277,26.277,0,0,0,6.814,8.742,25.572,25.572,0,0,0,16.45,5.977,25.57,25.57,0,0,0,16.416-5.95,26.275,26.275,0,0,0,6.814-8.7v-.3A1.249,1.249,0,0,0,810.532-111.186Z" transform="translate(-757.578 136.252)" fill="#ea341a"/>
      <path id="Path_89334" data-name="Path 89334" d="M864.919-249.18a1.248,1.248,0,0,0,.048-.163v-3.115a1.249,1.249,0,0,0-1.237-1.254H849.549a1.249,1.249,0,0,0-1.237,1.254v2.936a1.249,1.249,0,0,0,1.237,1.254h7.48l-8.405,9.558a1.264,1.264,0,0,0-.3,1.037v2.849a1.249,1.249,0,0,0,1.237,1.254h14.181a1.249,1.249,0,0,0,1.237-1.254v-2.936a1.249,1.249,0,0,0-1.237-1.253h-7.661l8.319-9.46.01-.008.411-.466A1.244,1.244,0,0,0,864.919-249.18Z" transform="translate(-826.202 253.712)" fill="#2c3b46"/>
    </g>
  </g>
</svg>
