<svg xmlns="http://www.w3.org/2000/svg" width="1920" height="520" viewBox="0 0 1920 520">
  <path id="Path_35980" data-name="Path 35980" d="M1420.118-785.393c-70.711,21.7-130.007,56.062-176.3,103.731-83.712,86.311-158.863,186.874-294.1,157.576-6.183-1.267-12.525-2.692-18.866-4.117C812.256-555.126,690.176-604.062,570-558.135a451.016,451.016,0,0,0-63.577,30.565c-48.673,28.031-95.6,62.4-137.934,99.455-36.465,31.832-73.724,72.058-123.665,81.4-35.514,6.651-71.5-.792-106.542-7.285C34.909-373-83.048-395.491-175.639-330.718c-46.771,32.782-104.005,61.288-158.386,25.5-2.379-1.584-11.891-7.76-11.891-10.927,0,0,0,12.431-.019,27.633h1920v-520c-15.062.95-30.124,1.9-45.185,3.009A479.633,479.633,0,0,0,1420.118-785.393Z" transform="translate(345.935 808.515)" fill="#fff"/>
</svg>
