<svg xmlns="http://www.w3.org/2000/svg" width="61" height="61.16" viewBox="0 0 61 61.16">
  <g id="ui" transform="translate(0.5 0.66)">
    <path id="Path_36525" data-name="Path 36525" d="M23.571,0H2.143A2.142,2.142,0,0,0,0,2.143V23.571a2.142,2.142,0,0,0,2.143,2.143H23.571a2.142,2.142,0,0,0,2.143-2.143V2.143A2.142,2.142,0,0,0,23.571,0ZM21.429,21.429H4.286V4.286H21.429Z" fill="#f54b24" stroke="#ffe8da" stroke-width="1"/>
    <path id="Path_36526" data-name="Path 36526" d="M23.571,264H2.143A2.142,2.142,0,0,0,0,266.143v21.429a2.142,2.142,0,0,0,2.143,2.143H23.571a2.142,2.142,0,0,0,2.143-2.143V266.143A2.142,2.142,0,0,0,23.571,264Zm-2.143,21.429H4.286V268.286H21.429Z" transform="translate(0 -229.714)" fill="#f54b24" stroke="#ffe8da" stroke-width="1"/>
    <path id="Path_36527" data-name="Path 36527" d="M287.571,264H266.143A2.142,2.142,0,0,0,264,266.143v21.429a2.142,2.142,0,0,0,2.143,2.143h21.429a2.142,2.142,0,0,0,2.143-2.143V266.143A2.142,2.142,0,0,0,287.571,264Zm-2.143,21.429H268.286V268.286h17.143Z" transform="translate(-229.714 -229.714)" fill="#f54b24" stroke="#ffe8da" stroke-width="1"/>
    <path id="Path_36528" data-name="Path 36528" d="M231.658,18.658a2.142,2.142,0,0,0,0-3.03l-15-15a2.142,2.142,0,0,0-3.03,0l-15,15a2.142,2.142,0,0,0,0,3.03l15,15a2.142,2.142,0,0,0,3.03,0l15-15Zm-28.485-1.515,11.97-11.97,11.97,11.97-11.97,11.97Z" transform="translate(-172.286 0)" fill="#f54b24" stroke="#ffe8da" stroke-width="1"/>
  </g>
</svg>
